<svg id="logo-ses" xmlns="http://www.w3.org/2000/svg" viewBox="0 0 714.82 142.9"><defs><style>.cls-1,.cls-2{fill:#fff;}.cls-1{fill-rule:evenodd;}</style></defs><g id="logo"><path class="cls-1" d="M268.48,129.64a1.64,1.64,0,0,1,1.75-.24,7.06,7.06,0,0,1-.78-9.48,6.84,6.84,0,0,1,2.67,4.61,7.1,7.1,0,0,1,4.1-3.09,1.65,1.65,0,0,1,.68-2.24,1.55,1.55,0,0,1,.51-.18,2.15,2.15,0,0,1-.15-.51,1.61,1.61,0,0,1-1.45,0,1.66,1.66,0,0,1-1.1-2.06,1.64,1.64,0,0,1,2.05-1.11,1.57,1.57,0,0,1,.7.42,1.5,1.5,0,0,1,.77,1.23,1.14,1.14,0,0,1,.5-.14,1.64,1.64,0,0,1,.08-1.45,1.55,1.55,0,0,1,1.52-.78,7,7,0,0,1-3.2-3.43,6.82,6.82,0,0,1,0-5.39,6.74,6.74,0,0,1,3.82,3.66,6,6,0,0,1,.25-.71,6.84,6.84,0,0,1,3-3.49,1.67,1.67,0,0,1-.58-1.66,1.56,1.56,0,0,1,1-1.08,2.13,2.13,0,0,1-.27-.46,1.61,1.61,0,1,1,.46-1.77,1.38,1.38,0,0,1,.45-.27,1.57,1.57,0,0,1,1.13-2.58,6.81,6.81,0,0,1-4.05-2.61,6.73,6.73,0,0,1-1.35-5.2,6.81,6.81,0,0,1,4.6,2.64,4.7,4.7,0,0,1,0-.75,6.86,6.86,0,0,1,2-4.06,1.66,1.66,0,0,1-.53-2.28,1.63,1.63,0,0,1,.39-.44,2,2,0,0,1-.38-.39,1.53,1.53,0,0,1-1.3.64,1.65,1.65,0,0,1-2-1.14,1.67,1.67,0,0,1,1.14-2,1.64,1.64,0,0,1,1,0,1.52,1.52,0,0,1,1.27.69,1,1,0,0,1,.38-.36,1.68,1.68,0,0,1-.65-1.29,1.66,1.66,0,0,1,1.07-1.48A7,7,0,0,1,281,73a6.79,6.79,0,0,1,5.08,1.53,5,5,0,0,0-.12-.73,7.1,7.1,0,0,1,1-4.34,1.65,1.65,0,0,1-1.12-1.23,1.55,1.55,0,0,1,.41-1.39,1.28,1.28,0,0,1-.43-.3,2.05,2.05,0,0,1-3.38.2,1.66,1.66,0,0,1,1.63-2.42,1.55,1.55,0,0,1,1.39.42,1.91,1.91,0,0,1,.29-.43,1.54,1.54,0,0,1-.88-1.13,1.64,1.64,0,0,1,.56-1.54,7,7,0,0,1-8.05-4.71,6.76,6.76,0,0,1,5.29.37c-.1-.23-.2-.46-.28-.7a6.9,6.9,0,0,1,.12-4.7,1.67,1.67,0,0,1-1.65-.9,1.57,1.57,0,0,1,0-1.46,1.24,1.24,0,0,1-.49-.2,1.66,1.66,0,0,1-.89,1.18,1.65,1.65,0,0,1-2.1-.78,1.55,1.55,0,0,1,.71-2.06l0,0a1.55,1.55,0,0,1,1.45,0,1.68,1.68,0,0,1,.17-.49,1.67,1.67,0,0,1-1.14-.88,1.65,1.65,0,0,1,.3-1.77,7,7,0,0,1-9.07-2.26A6.71,6.71,0,0,1,275,41.09a6.7,6.7,0,0,1-.45-.6,7,7,0,0,1-1.2-4.47,1.66,1.66,0,0,1-1.65-.45,1.54,1.54,0,0,1-.34-1.41,1.69,1.69,0,0,1-.55,0,1.67,1.67,0,0,1-.51,1.38,1.64,1.64,0,0,1-2.2-.76,1.66,1.66,0,0,1,.09-1.63,1.62,1.62,0,0,1,1.4-.36,2.26,2.26,0,0,1,0-.52A1.57,1.57,0,0,1,268,30.82a1.71,1.71,0,0,1,0-.45,6.81,6.81,0,0,1-4.07,2,6.62,6.62,0,0,1-5.15-1.4,6.7,6.7,0,0,1,4.55-2.7l-.61-.42A6.9,6.9,0,0,1,260,23.19a6.79,6.79,0,0,1,5.17,1.38l.58.48a6.77,6.77,0,0,1,1.41-5.1,7,7,0,0,1,1.65,9.31,1.64,1.64,0,0,1,2.11,1,1.68,1.68,0,0,1,.08.8,1.4,1.4,0,0,1,.5,0,1.65,1.65,0,0,1,.51-1.33,1.55,1.55,0,0,1,2.19.09l0,0a1.65,1.65,0,0,1-.4,2.31,1.6,1.6,0,0,1-1.1.29,1.4,1.4,0,0,1,0,.5,1.63,1.63,0,0,1,1.35.53,1.66,1.66,0,0,1,.17,1.89,6.89,6.89,0,0,1,3.81,2.78q.21.32.39.63a6.74,6.74,0,0,1,2.93-4.39,7,7,0,0,1-1.69,9.66,1.66,1.66,0,0,1,1.88.85,1.72,1.72,0,0,1,0,1.44,1.46,1.46,0,0,1,.44.16,1.69,1.69,0,1,1,2.51,1.76,1.6,1.6,0,0,1-1.7,0,2,2,0,0,1-.18.48,1.53,1.53,0,0,1,1.15.88,1.67,1.67,0,0,1-.39,1.89,6.87,6.87,0,0,1,2.93,3.76,6.05,6.05,0,0,1,.2.73,6.87,6.87,0,0,1,4-3.41,6.77,6.77,0,0,1-.38,5.36,6.88,6.88,0,0,1-3.57,3.32,1.65,1.65,0,0,1,1,2.66,2.42,2.42,0,0,1,.41.27,1.39,1.39,0,0,1,2.62.92,1.64,1.64,0,0,1-.9,1.33,1.62,1.62,0,0,1-1.37-.39,1.73,1.73,0,0,1-.3.41,1.52,1.52,0,0,1,.91,1.14,1.68,1.68,0,0,1-.69,1.66A7,7,0,0,1,290,73.31v.76a6.73,6.73,0,0,1,4.7-2.41,7,7,0,0,1-6,7.6,1.65,1.65,0,0,1,1.22,1.57,1.68,1.68,0,0,1-.67,1.28,2.2,2.2,0,0,1,.33.35,1.64,1.64,0,0,1,2.83,1A1.65,1.65,0,0,1,290.74,85a1.51,1.51,0,0,1-1.25-.68,1.63,1.63,0,0,1-.38.36,1.55,1.55,0,0,1,.64,1.3,1.64,1.64,0,0,1-1.12,1.49,7,7,0,0,1,.89,4.49,1.47,1.47,0,0,1-.13.74,6.69,6.69,0,0,1,5.11-1.31,7,7,0,0,1-7.61,6.07,1.59,1.59,0,0,1-.05,2.93,1.82,1.82,0,0,1,.24.43,1.57,1.57,0,0,1,2.51,1.66,1.64,1.64,0,0,1-3,.16,1.86,1.86,0,0,1-.43.25,1.67,1.67,0,0,1,.31,1.43A1.62,1.62,0,0,1,285,105.5a7.11,7.11,0,0,1-.15,4.73l-.31.69a6.65,6.65,0,0,1,5.25,0,6.87,6.87,0,0,1-8.63,4.09,1.67,1.67,0,0,1,.31,2,.87.87,0,0,0-1.14.48.9.9,0,0,0,.07.8,1.55,1.55,0,0,1,1.42,0,1.66,1.66,0,0,1-.73,3.23,1.73,1.73,0,0,1-.84-.48,1.58,1.58,0,0,1-.79-1.2,1.56,1.56,0,0,1-.48.14,1.5,1.5,0,0,1,0,1.45,1.63,1.63,0,0,1-1.65.78,6.91,6.91,0,0,1-1.46,4.28c-.15.2-.31.39-.48.58a6.71,6.71,0,0,1,5.06,1.44,6.87,6.87,0,0,1-9.57,1.42,1.67,1.67,0,0,1-.58,2.27,1.61,1.61,0,0,1-1.07.22,1.93,1.93,0,0,1,0,.48,1.64,1.64,0,0,1,1.32.51,1.67,1.67,0,0,1,.09,2.34,1.64,1.64,0,0,1-2.33.1,1.67,1.67,0,0,1-.47-1.68,1.46,1.46,0,0,1-.51,0,1.73,1.73,0,1,1-3.1-.64,1.67,1.67,0,0,1,.38-.37,1.53,1.53,0,0,1,1.4-.36,2.53,2.53,0,0,1,0-.55,1.52,1.52,0,0,1-1.35-.51,1.56,1.56,0,0,1,.08-2.2l0,0a1.65,1.65,0,0,1,2.23.1,1.59,1.59,0,0,1,.38,1.39,1.46,1.46,0,0,1,.51,0,1.65,1.65,0,0,1,.51-1.36" transform="translate(-4.85 -10.24)"/><path class="cls-1" d="M203.72,32.4a65.75,65.75,0,0,0-8,12.86l2.46-9.62a.29.29,0,0,0-.14-.34l-2.31-1.09a.23.23,0,0,0-.32.12l-6.24,11.86a.27.27,0,0,0,.08.36.23.23,0,0,0,.34,0l5.35-6.62-.61,8.53c-.34.84-.69,1.66-1,2.52A83.73,83.73,0,0,0,189,66.92l-.18-10.74a.29.29,0,0,0-.25-.27l-2.66-.37a.29.29,0,0,0-.32.22l-3.07,13.37a.27.27,0,0,0,.18.33.26.26,0,0,0,.33-.15s3-6.68,3.61-8L188.47,70a89.71,89.71,0,0,0-.8,11.7q0,3.25.23,6.43l-2.72-10a.28.28,0,0,0-.3-.2l-2.68.3a.29.29,0,0,0-.25.3l.3,13.71a.26.26,0,0,0,.25.28h0a.29.29,0,0,0,.3-.23s1.28-7.25,1.53-8.69l3.89,8a80.69,80.69,0,0,0,4.17,18.22L187,100.88a.31.31,0,0,0-.37-.12l-2.47,1a.25.25,0,0,0-.18.31v0L188,115.25a.29.29,0,0,0,.33.2.26.26,0,0,0,.23-.28h0s-.73-7.34-.86-8.78l5.85,6.57a70.12,70.12,0,0,0,8.84,15.73l-7.54-6.52a.27.27,0,0,0-.37,0l-2,1.67a.33.33,0,0,0,0,.38l7.88,11.2a.27.27,0,0,0,.36.08.26.26,0,0,0,.15-.25.2.2,0,0,0,0-.11l-3.57-8,7.41,4.24a40,40,0,0,0,3.11,3.34,1.45,1.45,0,0,0,2.07,0l0,0a1.45,1.45,0,0,0,0-2h0c-1.14-1.13-2.23-2.32-3.33-3.59l-.65-7,5.7,6.69a.32.32,0,0,0,.39,0,.29.29,0,0,0,0-.37l-6.8-11.78a.29.29,0,0,0-.35-.12l-2.51,1a.25.25,0,0,0-.17.33v0L205,127.2a67.33,67.33,0,0,1-9.09-16.3l1.41-7.33,3.87,8.05a.28.28,0,0,0,.37.17.28.28,0,0,0,.16-.37h0l-3.47-13.23a.27.27,0,0,0-.3-.22l-2.69.27a.28.28,0,0,0-.25.3v10.08s-3.54-11.93-4.18-18.11l3.3-6.84c.26,1.39,1.65,8.71,1.65,8.71a.27.27,0,0,0,.29.22c.15,0-.06-.28-.06-.28V78.7a.27.27,0,0,0-.23-.28L193.4,78a.29.29,0,0,0-.3.22l-2.37,9.94c-.16-2.09-.23-4.19-.23-6.33a85.91,85.91,0,0,1,.84-12L195.81,64c0,1.43-.37,8.86-.37,8.86h0a.27.27,0,0,0,.22.29.28.28,0,0,0,.29-.22l3-13.25a.28.28,0,0,0-.15-.33l-2.33-.9a.23.23,0,0,0-.32.12l-4.46,8.93a79.67,79.67,0,0,1,5.44-18.54l5.91-4c-.49,1.32-3,8.28-3,8.28a.24.24,0,0,0,0,.12.29.29,0,0,0,.14.25.25.25,0,0,0,.34-.12l6.76-11.6a.3.3,0,0,0,0-.36l-1.94-1.76a.27.27,0,0,0-.36,0l-7,7.09a63.24,63.24,0,0,1,7.8-12.49l9.76-8.9a.15.15,0,0,0,0-.18.17.17,0,0,0-.19,0l-5.1,3.1,6.43-8.75a.16.16,0,0,0-.05-.21.14.14,0,0,0-.16,0l-7.48,7.54,2.34-5.6a.15.15,0,0,0,0-.18.12.12,0,0,0-.17,0l-7.49,11.28Z" transform="translate(-4.85 -10.24)"/><path class="cls-1" d="M260.39,72.93a4.8,4.8,0,0,0-.67.76h0A6.38,6.38,0,0,1,256.26,76a56.56,56.56,0,0,0-7.29,2.3,89.49,89.49,0,0,0,10.09.4c2.32-.28,4.84-1.56,4.94-3.48s-1.65-2.42-3.52-2.39m4.94-8.71h0c-.63.17.51-1.14,1.65-.35ZM239,86.57V83a4.46,4.46,0,0,1,2.14-3.51,28.45,28.45,0,0,0,.36,7.14c-.57,0-1.13-.08-1.64-.08Zm7.3-54.17a5.71,5.71,0,0,1,.86,3l1.35,22.79,6.59.13L265,46.47A35.05,35.05,0,0,0,246.3,32.4ZM202.86,69.13l8.27,3a3.18,3.18,0,0,0,2.5-1.7,48.41,48.41,0,0,0,7.39-.72c-1,.34-7.27,1.7-7.12,1.82.08.58,3.9,1.47,11.38-.86a28,28,0,0,1-6.43,2.51c-.15,0,.12.16.53.26,1.28.27,4.37.56,10.75-1.7a49.06,49.06,0,0,1-6.53,2.6c-1.22.39,2,.7,4.41.24s4.69-1.62,6.36-1.82l1.27-.12a56.46,56.46,0,0,0-10.91,4.74,32.19,32.19,0,0,1-9,3.4,16.16,16.16,0,0,0,5.58,2.63,23.86,23.86,0,0,0,8.87.38c1-2.47,5-5,6.77-5.68a5.36,5.36,0,0,0-2.2,4.42,36.35,36.35,0,0,0,.76,4.27l-1.42.32h.61A19.93,19.93,0,0,0,220,106.41v.72H208.38c6.24,15.08,17.86,25.23,31.14,25.23s24.87-10.15,31-25.23H259v-.33A20.36,20.36,0,0,0,243.5,87h0a15.59,15.59,0,0,1,.27-5.53c.27-1.13,2.35-2.7,4-3.74a31.2,31.2,0,0,1,6.76-2.44A11,11,0,0,0,257.93,74a20.12,20.12,0,0,0,2.42-2.55l.59-.58a18.4,18.4,0,0,1,5.57-3.69,10.82,10.82,0,0,1,3.38-.78,2.22,2.22,0,0,1,1.57.66,5.51,5.51,0,0,0-.32-2.17A2.55,2.55,0,0,0,268.08,63l-.17.05c-.39-.78-2.2-.49-3.87,0s-4.87,1.7-6.26,2.25a7.77,7.77,0,0,1-4.32.34,1.69,1.69,0,0,0,1.06.88,2.26,2.26,0,0,1-.52,0,3.49,3.49,0,0,1-2.25-1.82c-.7-1.39-.59-2.65-1.08-3.55s-.76-2.28-3.18-2.28-7.81,2-12.51,3.16-12.8,3.4-16.4,4.42c-1,.26-2.2.51-3.52.77l6.87-13.4c3.84-8.31,6.61-3.18,6.61-3.18a13.88,13.88,0,0,1,2.94-2.09c2.1-1.34,3.82,1.7,3.82,1.7s.42-2,3.65-2.41c.71,0,2.38-12.09,2.38-12.09s.36-4,1.83-5.37A27.67,27.67,0,0,0,238.8,30c-17.29-.19-32,16.55-36,39.09Zm36.34-40c-21.42,0-38.95,23.81-38.95,53s17.46,53,38.95,53,38.94-23.81,38.94-53-17.52-53-39-53Z" transform="translate(-4.85 -10.24)"/><path class="cls-2" d="M223,107.13h-.39c0,.18-.12.05-.41.06s-.37.17-.2.49v.45h1Zm0,.5v.5h0v.64l-1.63.16-.08-1.25c0-.83.28-1.05.79-1.08a.76.76,0,0,1,.86.5l1.06-.58v.62Z" transform="translate(-4.85 -10.24)"/><polygon class="cls-2" points="216.59 94.28 216.94 92.34 217.45 92.42 217.2 93.79 217.69 93.88 217.94 92.55 218.44 92.63 218.21 93.98 218.77 94.08 219.01 92.68 219.51 92.77 219.16 94.72 216.59 94.28"/><polygon class="cls-2" points="217.53 90.2 217.84 89.52 219.75 89.62 218.44 88.21 218.75 87.53 221.12 88.63 220.89 89.14 219.31 88.41 220.59 89.78 220.41 90.18 218.55 90.1 220.12 90.83 219.9 91.29 217.53 90.2"/><path class="cls-2" d="M226.68,95.73h0c.21-.25.21-.43,0-.63s-.4-.15-.61.1l-.45.53.65.53Zm-1.81.12.8-1c.51-.63.94-.59,1.35-.24s.56.77,0,1.44l-.41.51.61.51-.36.44Z" transform="translate(-4.85 -10.24)"/><path class="cls-2" d="M228.79,94l-.94-1.31.46-.35.91,1.26c.23.32.42.43.85.12s.4-.53.15-.86l-.89-1.26.45-.33.95,1.32c.28.4.53.9-.36,1.56s-1.29.25-1.65-.15" transform="translate(-4.85 -10.24)"/><path class="cls-2" d="M233.71,91.72h0c.28-.12.37-.23.28-.43s-.21-.23-.49-.13l-.66.26.23.55Zm-.42-1h0c.28-.12.31-.23.24-.42s-.18-.21-.46-.09l-.61.24.2.52Zm-1.54-.51,1.12-.45c.65-.27,1-.2,1.17.26a.51.51,0,0,1-.11.67.59.59,0,0,1,.63.44c.13.35,0,.81-.73,1.06l-1.12.45Z" transform="translate(-4.85 -10.24)"/><polygon class="cls-2" points="231.03 78.6 231.6 78.52 231.91 80.62 233.18 80.42 233.27 80.92 231.42 81.2 231.03 78.6"/><polygon class="cls-2" points="234.8 78.27 235.38 78.29 235.29 80.9 234.72 80.89 234.8 78.27"/><path class="cls-2" d="M242,90a1.21,1.21,0,0,1,1.31-1.09,1.3,1.3,0,0,1,.34.08,1.31,1.31,0,0,1,.9.6l-.47.3a.85.85,0,0,0-.56-.38c-.55-.12-.83.1-1,.63s0,.86.59,1a.89.89,0,0,0,.71-.12l.28.45a1.3,1.3,0,0,1-1.13.17,1.18,1.18,0,0,1-1.11-1.24,1.23,1.23,0,0,1,.1-.42" transform="translate(-4.85 -10.24)"/><path class="cls-2" d="M247.11,92.13h0l.1-1.12-.84.76Zm.14-1.85.52.25-.23,2.85-.54-.27v-.48l-1.07-.51-.33.3-.51-.25Z" transform="translate(-4.85 -10.24)"/><polygon class="cls-2" points="245.61 81.96 246.17 82.46 245.49 84.27 247.22 83.42 247.78 83.92 246.04 85.87 245.61 85.49 246.78 84.18 245.1 85.01 244.77 84.73 245.41 82.96 244.24 84.25 243.86 83.9 245.61 81.96"/><path class="cls-2" d="M255.83,103.6a1.21,1.21,0,0,1,1.43.93,1.3,1.3,0,0,1,0,.34,1.45,1.45,0,0,1-.3,1.1l-.43-.37a.83.83,0,0,0,.2-.69c0-.57-.34-.76-.89-.73s-.84.21-.79.86.23.63.93.61h0v-.52h.14l.1,1h-.43c-.74.09-1.15-.13-1.22-1.09a1.18,1.18,0,0,1,1.24-1.44" transform="translate(-4.85 -10.24)"/><polygon class="cls-2" points="252.4 97.42 252.13 99.39 251.61 99.31 251.81 97.94 251.29 97.87 251.11 99.21 250.62 99.15 250.8 97.8 250.22 97.72 250.04 99.11 249.53 99.05 249.81 97.08 252.4 97.42"/><path class="cls-2" d="M255,112h0c-.09.3,0,.47.2.57s.41,0,.51-.32l.23-.63-.7-.26Zm-.42-.25.19-.56-.82-.28.18-.55,2.47.9-.43,1.19c-.28.76-.67.85-1.13.66a.74.74,0,0,1-.61-.79l-1,.18.2-.58Z" transform="translate(-4.85 -10.24)"/><polygon class="cls-2" points="250.26 104.63 249.23 106.3 248.79 106.04 249.51 104.84 249.09 104.58 248.38 105.74 247.95 105.47 248.66 104.31 248.16 104.02 247.42 105.21 247.01 104.94 248.03 103.25 250.26 104.63"/><path class="cls-2" d="M251.35,117.91h0c-.23.24-.27.39,0,.58s.38.17.59,0l.46-.49-.54-.52Zm-.32-.41.42-.43-.65-.6.4-.41,1.89,1.8-.85.92c-.56.61-1,.51-1.32.16a.78.78,0,0,1-.23-1l-1-.24.43-.47Z" transform="translate(-4.85 -10.24)"/><polygon class="cls-2" points="245.43 110.35 243.81 111.47 243.52 111.04 244.65 110.25 244.37 109.83 243.27 110.59 242.97 110.18 244.08 109.42 243.75 108.94 242.61 109.73 242.31 109.32 243.94 108.19 245.43 110.35"/><path class="cls-2" d="M241,123h0c-.31,0-.43.13-.4.41s.17.38.5.33l.67-.08-.1-.75Zm0-1.89h.58l-.1,1H242l.29,2.11-1.25.15c-.81.1-1.05-.23-1.1-.73a.75.75,0,0,1,.44-.89l-.62-.64h.61Z" transform="translate(-4.85 -10.24)"/><polygon class="cls-2" points="233.6 114.16 231.63 113.97 231.69 113.44 233.07 113.58 233.12 113.06 231.77 112.93 231.82 112.43 233.15 112.57 233.22 111.99 231.82 111.85 231.87 111.36 233.84 111.54 233.6 114.16"/><path class="cls-2" d="M235.43,122.69a1.22,1.22,0,0,1-1.44,1,.83.83,0,0,1-.21-.06,1.38,1.38,0,0,1-.87-.66l.49-.27a.89.89,0,0,0,.55.42.86.86,0,0,0,.47-1.66h0a.9.9,0,0,0-.72,0l-.25-.48a1.36,1.36,0,0,1,1.15,0,1.17,1.17,0,0,1,.89,1.66" transform="translate(-4.85 -10.24)"/><polygon class="cls-2" points="226.12 111.57 226.91 112 226.64 112.47 224.55 111.31 224.81 110.86 225.6 111.29 226.61 109.45 227.12 109.73 226.12 111.57"/><polygon class="cls-2" points="223.35 110.44 221.85 109.17 222.19 108.77 223.25 109.67 223.58 109.29 222.54 108.41 222.87 108.01 223.91 108.89 224.27 108.46 223.2 107.55 223.53 107.15 225.04 108.44 223.35 110.44"/><path class="cls-1" d="M252.68,103.13h0c0,.35.28,2.05.28,2.77a13.82,13.82,0,0,1-13.79,13.86,18.27,18.27,0,0,1-10.3-4.12l.2-.27c7.64-9.94,20.08-12.07,23.38-12.24ZM239.17,92.25h0l1,2.88h3L240.73,97l.89,2.89.35-.12a35.48,35.48,0,0,1,8.62-1.43,13.8,13.8,0,0,0-11.42-6Zm-13.79,13.88a13.84,13.84,0,0,1,13.79-13.88l-1,2.88h-3L237.6,97l-.9,2.9,2.47-1.75,2.44,1.74a32.78,32.78,0,0,0-15.15,11.81A20.78,20.78,0,0,1,225.38,106.13Z" transform="translate(-4.85 -10.24)"/><path class="cls-2" d="M230.45,110.09h0c-.23-.21-.43-.16-.66.1s-.19.47,0,.63a.4.4,0,0,0,.61,0,.37.37,0,0,0,0-.64m.08,1.65.17-.18c.58-.66.38-.88.2-1.08a.77.77,0,0,1-.32.68.67.67,0,0,1-.94.17.65.65,0,0,1-.16-.17c-.4-.34-.48-.74,0-1.27a.91.91,0,0,1,1.25-.3.8.8,0,0,1,.23.22c.73.62.83,1.09,0,2l-.14.16Z" transform="translate(-4.85 -10.24)"/><path class="cls-2" d="M233.24,108.39h0l-.91-.47.35,1Zm-1.5-.76.39-.35,2.28,1.14-.4.37-.38-.2-.79.71.13.4-.38.33Z" transform="translate(-4.85 -10.24)"/><path class="cls-2" d="M235.31,107.23h0c.22-.15.27-.28.15-.43s-.25-.17-.46,0l-.51.38.31.43Zm-.54-.78h0c.23-.17.23-.28.13-.42s-.21-.14-.43,0l-.48.35.3.42Zm-1.45-.1.89-.65c.51-.38.82-.39,1.07,0a.48.48,0,0,1,0,.6.53.53,0,0,1,.66.25c.3.41.1.73-.41,1.09l-.88.65Z" transform="translate(-4.85 -10.24)"/><path class="cls-2" d="M236.94,105.22h0c.24-.15.32-.28.19-.49s-.28-.25-.55-.1l-.51.31.35.6Zm.15.43-.46.27.4.68-.43.25-1.19-2,1-.58c.65-.37,1-.18,1.19.2a.74.74,0,0,1,0,.91l.82.48-.47.28Z" transform="translate(-4.85 -10.24)"/><polygon class="cls-2" points="232.89 93.29 233.34 93.07 234.38 95.19 233.92 95.42 232.89 93.29"/><polygon class="cls-2" points="233.96 92.73 234.44 92.53 235.18 94.29 236.23 93.83 236.41 94.26 234.87 94.9 233.96 92.73"/><polygon class="cls-2" points="237.06 92.02 236.68 92.14 236.55 91.71 237.4 91.44 238.09 93.69 237.63 93.84 237.06 92.02"/><path class="cls-2" d="M244.76,102.74h0c0-.22-.22-.32-.58-.23s-.46.24-.41.46.21.31.57.23.46-.25.42-.46m-.3-1h0c0-.17-.15-.25-.5-.17s-.41.2-.37.37.16.25.51.16S244.51,101.93,244.46,101.76ZM243,103.12a.59.59,0,0,1,.21-.7c-.26,0-.34-.2-.39-.41s0-.63.77-.81,1,0,1,.38a.47.47,0,0,1-.18.56.58.58,0,0,1,.53.51c.08.39-.08.77-.84.95s-1.06-.08-1.14-.46Z" transform="translate(-4.85 -10.24)"/><path class="cls-2" d="M247,101.48h0c0-.32-.23-.42-.58-.37s-.43.24-.4.48.15.4.52.35.49-.2.46-.46m-1,.65h.25c.87.49.85.21.84-.07-.09.16-.3.26-.66.31a.69.69,0,0,1-.86-.46.78.78,0,0,1,0-.22c-.09-.51.11-.86.82-1s1.07.21,1.17.91c.13,1-.08,1.37-1.25,1.5H246Z" transform="translate(-4.85 -10.24)"/><path class="cls-2" d="M248,102.56l.68-.72c.34-.33.46-.44.44-.64s-.1-.28-.41-.27a1.3,1.3,0,0,0-.63.2l-.26-.38a1.8,1.8,0,0,1,.91-.25c.56,0,.85.13.89.61s-.15.58-.5.93l-.46.09H250v.77l-2,.12Z" transform="translate(-4.85 -10.24)"/><polygon class="cls-1" points="240.72 16.54 235.38 12.74 230.04 16.54 231.98 10.26 226.72 5.89 233.28 5.89 235.38 0 235.38 0 237.47 6.89 244.03 6.89 238.77 10.26 240.72 16.54"/><path class="cls-1" d="M225.64,148.05h0c1.32.53,1.65-.43,2.09-1.44s.79-2-.51-2.48-1.65.43-2.09,1.44-.79,2,.51,2.48m.23-.56h0c-.43-.18-.33-.63,0-1.66s.63-1.37,1.07-1.19.33.63,0,1.66S226.33,147.67,225.87,147.49Zm-4.94-1.06h0l1.33.38c1.4.41,1.65-1,1.88-1.66.35-1.22.36-2-.71-2.32l-1.37-.39Zm1.78-3.1h0l.41.13c.58.15.39.8.18,1.53-.28,1-.48,1.32-1,1.19l-.39-.12Zm-5.61,2.8h0c1.39.2,1.54-.84,1.65-1.91s.3-2.08-1.1-2.3-1.53.85-1.65,1.91-.25,2.1,1.15,2.3Zm.09-1h0c-.48,0-.48-.53-.33-1.56s.28-1.49.74-1.42.48.53.33,1.65-.22,1.4-.69,1.33Zm-4.91,0h1.36c1.42,0,1.35-1.39,1.35-2,0-1.24-.16-2-1.25-2h-1.38Zm.77-3h.46c.64,0,.62.7.61,1.49,0,1.11-.14,1.53-.68,1.51H213Zm-2.77,2.06h0l-.8.1.18-1.8h0Zm-1,1.66h0l.12-.93,1.15-.13.33.86.89-.1-1.65-3.94-1.1.13-.65,4.21Zm-4.33-3.31h0l.15.66.92-.2.71,3.31.84-.18-.71-3.31.92-.2-.13-.66Zm.11,3h0c-.41-1.23-2-.6-2.25-1.33a.39.39,0,0,1,.18-.53l.1,0c.31-.12.46.16.56.46l.79-.28c-.23-.83-.75-1-1.54-.76a1.21,1.21,0,0,0-.89,1.52c.4,1.15,2,.63,2.28,1.33a.41.41,0,0,1-.19.55l-.06,0c-.46.15-.58-.15-.69-.52l-.81.29a1.07,1.07,0,0,0,1.16,1,1.21,1.21,0,0,0,.41-.12c.72-.2,1.43-.57,1-1.58Zm-2.72,2.09h0l-.26-.58-1.29.62-.51-1.07,1.14-.55-.26-.58L200,146l-.44-.91,1.23-.61-.26-.56-2,1,1.76,3.7Zm36.52,1.11h0c1.19.76,1.65-.12,2.31-1s1.12-1.79,0-2.54-1.65.1-2.31,1-1.07,1.81.11,2.55Zm.31-.52h0c-.39-.25-.21-.68.35-1.56s.86-1.24,1.25-1,.23.7-.33,1.66-.71,1.16-1.15.91Zm-2.34-.84h0l2.19-3.47-.72-.44-2.18,3.44Zm-2-3.32h0l.2.12c.54.35.29.68,0,1.09a1.77,1.77,0,0,0-.35.73l.69.45a6.23,6.23,0,0,1,.58-1.08.74.74,0,0,0-.15-1l-.05,0h0a.85.85,0,0,0,1.15-.39l0,0a.92.92,0,0,0-.06-1.29.66.66,0,0,0-.17-.12l-1.32-.85L233.12,145l.73.46Zm1-1.49h0l.31.2c.23.15.28.36.08.7s-.39.44-.69.26l-.31-.2ZM276,146.78h0c1.3-.57.88-1.53.47-2.52s-.82-1.94-2.11-1.39-.9,1.5-.47,2.5S274.61,147.32,276,146.78Zm-.24-.58h0c-.44.2-.67-.2-1.08-1.16s-.53-1.41-.09-1.66.68.22,1.09,1.18.46,1.45,0,1.65Zm-4.16-.07h.21c.64-.2.71.22.86.68a1.67,1.67,0,0,0,.31.74l.79-.24a5.72,5.72,0,0,1-.43-1.13.71.71,0,0,0-.82-.58l-.12,0h0a.87.87,0,0,0,.46-1.15v0a.93.93,0,0,0-1-.81l-.19,0-1.52.47,1.19,3.93.81-.25Zm-.5-1.34h0l.36-.1c.27-.08.46,0,.58.38s0,.61-.25.71l-.36.1Zm-.86,3.86h0l-.84-4.09-.84.16.86,4Zm-1.64.33h0l-.12-.63-1.38.23-.2-1.19,1.25-.18-.1-.63-1.23.2-.17-1,1.37-.22-.12-.61-2.19.35.65,4Zm-5.71.58h0l-.13-3h0l1.26,2.57h1.11l-.17-4h-.81l.13,3.14h0l-1.2-2.14h-1.16l.18,3.45Zm-2.9-1.43h-.82l.51-1.74h0Zm-1.32.83h0l.26-.83h1.19l.18,1h.87l-.8-4h-1.18l-1.3,3.72ZM257,145h0l-.5,3.16a.34.34,0,0,1-.37.3c-.45,0-.28-.53-.24-.86l-.85-.13c-.15.91-.18,1.4,1,1.65a1,1,0,0,0,1.31-.72s0-.07,0-.11l.5-3.09Zm-4.47,3.18h0l.18-.61-1.35-.44.37-1.12,1.2.38.18-.61-1.2-.37.29-1,1.32.41.2-.61-2.13-.66-1.23,3.89Zm-5.81-2.27h0l1.25.58c1.33.59,1.83-.75,2.09-1.33.53-1.16.64-1.92-.36-2.38l-1.3-.62Zm2.19-2.8.39.18c.55.23.28.85,0,1.54s-.67,1.24-1.13,1l-.38-.17Zm27.6-4.86a27.4,27.4,0,0,1-28.94,0l-3.21,5.21-9.26-5.77L231.8,143a37.73,37.73,0,0,0-38.06.94l5.37,8.77a27.38,27.38,0,0,1,28.95,0l3.3-5.24,9.16,5.72c.54-.9,2-3.2,3.3-5.2a37.94,37.94,0,0,0,38.11-.95Z" transform="translate(-4.85 -10.24)"/><path class="cls-2" d="M321,83.13h0v7h5.05a10.73,10.73,0,0,0,4.65-.8,2.93,2.93,0,0,0,1.63-2.87,2.81,2.81,0,0,0-1.22-2.53,6.44,6.44,0,0,0-3.54-.8Zm0,16v11.61a1.42,1.42,0,0,1-.38,1,1.22,1.22,0,0,1-.93.43h-9.41a1.14,1.14,0,0,1-.89-.43,1.41,1.41,0,0,1-.39-1V76.55a1.35,1.35,0,0,1,.39-1,1.14,1.14,0,0,1,.89-.43h22a15.21,15.21,0,0,1,9.38,2.69,9.26,9.26,0,0,1,3.83,7.69c0,3.59-1,6.18-3.14,7.79a11.33,11.33,0,0,1-1.76,1.15,14.85,14.85,0,0,1-2.24,1,13.45,13.45,0,0,1,2.47,1.75,12.5,12.5,0,0,1,1.75,1.89L348.84,110a1.43,1.43,0,0,1,0,1.49,1.29,1.29,0,0,1-1.24.69H336.07a1.11,1.11,0,0,1-.7-.25,1.64,1.64,0,0,1-.53-.55L329,100v.09l-.39-.48L328,99.2a7.47,7.47,0,0,0-2.58-.21Z" transform="translate(-4.85 -10.24)"/><path class="cls-2" d="M350.1,112.13a.94.94,0,0,1-.78-.43,1.64,1.64,0,0,1-.32-1V76.54a1.64,1.64,0,0,1,.32-1,.94.94,0,0,1,.78-.43h7.81a.91.91,0,0,1,.78.43,1.63,1.63,0,0,1,.31,1v34.18a1.63,1.63,0,0,1-.31,1,.91.91,0,0,1-.78.43Z" transform="translate(-4.85 -10.24)"/><path class="cls-2" d="M387.61,87.15h0a10,10,0,0,0-12.22,0,10.17,10.17,0,0,0,0,12.34,10.05,10.05,0,0,0,12.22,0,10.09,10.09,0,0,0,0-12.34m8.84,20.71q-5.07,4.74-15,4.75t-14.89-4.75q-5.07-4.77-5.08-14.55t5.08-14.56q5.08-4.81,15-4.79t15,4.79q5.08,4.78,5.07,14.56C401.61,99.82,399.85,104.68,396.45,107.86Z" transform="translate(-4.85 -10.24)"/><path class="cls-2" d="M439.16,88h0a5.46,5.46,0,0,0-4.5-1.9H427v15h7.31a5.9,5.9,0,0,0,4.76-1.88,8.34,8.34,0,0,0,1.6-5.57A8.92,8.92,0,0,0,439.16,88m-4.36-13a15.92,15.92,0,0,1,12.29,5.16,21.22,21.22,0,0,1,0,26.68A15.51,15.51,0,0,1,435,112.13h-18.7a1.22,1.22,0,0,1-.93-.43,1.44,1.44,0,0,1-.38-1V76.56a1.42,1.42,0,0,1,.38-1,1.22,1.22,0,0,1,.93-.43Z" transform="translate(-4.85 -10.24)"/><path class="cls-2" d="M454.31,112.13a1.15,1.15,0,0,1-.91-.44,1.44,1.44,0,0,1-.4-1V75.57a1.44,1.44,0,0,1,.4-1,1.18,1.18,0,0,1,.91-.44h25.38a1.18,1.18,0,0,1,.91.44,1.44,1.44,0,0,1,.4,1v7.05a1.5,1.5,0,0,1-.4,1.07,1.18,1.18,0,0,1-.91.44H465v4h12.67a1.28,1.28,0,0,1,.94.45,1.6,1.6,0,0,1,.39,1v7a1.46,1.46,0,0,1-.39,1,1.3,1.3,0,0,1-.94.43l-12.67,0v4h15.69a1.21,1.21,0,0,1,.94.44,1.68,1.68,0,0,1,.37,1.05v7.07a1.53,1.53,0,0,1-.37,1,1.21,1.21,0,0,1-.94.44Z" transform="translate(-4.85 -10.24)"/><path class="cls-2" d="M518.73,74.13a1.2,1.2,0,0,1,.9.43,1.67,1.67,0,0,1,.37,1v24.51a13.07,13.07,0,0,1-3.7,9.58,12.55,12.55,0,0,1-9.35,3.62,19.17,19.17,0,0,1-6.37-1.14c-1.08-.38-2-.69-2.61-1a7.51,7.51,0,0,1-1.44-.66,2.11,2.11,0,0,1-.65-1.1l-1.27-10.86a1.51,1.51,0,0,1,.12-1,1.55,1.55,0,0,1,.59-.6,1.3,1.3,0,0,1,.8-.11,1.27,1.27,0,0,1,.76.49,11,11,0,0,0,2.82,2.21,7.88,7.88,0,0,0,4.18,1.17A3.58,3.58,0,0,0,508,96.68V75.6a1.5,1.5,0,0,1,.39-1,1.26,1.26,0,0,1,.93-.43Z" transform="translate(-4.85 -10.24)"/><path class="cls-2" d="M536.45,98.13h7.93l-3.84-8.28Zm14.15,14a1.07,1.07,0,0,1-.61-.23,1,1,0,0,1-.45-.51l-2-4.26H533l-2,4.26a1.28,1.28,0,0,1-.47.51,1,1,0,0,1-.61.23h-9.63a1.29,1.29,0,0,1-1.22-.66,1.44,1.44,0,0,1,0-1.47l17.36-34.12a1.33,1.33,0,0,1,.5-.5,1.27,1.27,0,0,1,.64-.25H545a1.06,1.06,0,0,1,.63.25,1.49,1.49,0,0,1,.51.55l16.31,34.12a1.65,1.65,0,0,1,0,1.44,1.21,1.21,0,0,1-1.17.64Z" transform="translate(-4.85 -10.24)"/><path class="cls-2" d="M585.56,89.88,588,93.62V76.54a1.44,1.44,0,0,1,.38-1,1.26,1.26,0,0,1,.94-.43h8.36a1.26,1.26,0,0,1,.94.43,1.44,1.44,0,0,1,.38,1v34.18a1.44,1.44,0,0,1-.38,1,1.26,1.26,0,0,1-.94.43h-9.51a1.26,1.26,0,0,1-.54-.16,1.45,1.45,0,0,1-.53-.41L575,93.63v17.09a1.38,1.38,0,0,1-.4,1,1.18,1.18,0,0,1-.94.43h-8.38a1.2,1.2,0,0,1-.9-.43,1.44,1.44,0,0,1-.38-1V76.54a1.44,1.44,0,0,1,.38-1,1.2,1.2,0,0,1,.9-.43h9.09a1.3,1.3,0,0,1,.63.2.92.92,0,0,1,.44.41l3.64,5.57c1.19,1.79,2.39,3.6,3.61,5.4.83,1.21,1.65,2.44,2.42,3.65" transform="translate(-4.85 -10.24)"/><path class="cls-2" d="M602.28,112.16a1.19,1.19,0,0,1-.9-.43,1.45,1.45,0,0,1-.38-1V75.57a1.46,1.46,0,0,1,.37-1,1.18,1.18,0,0,1,.88-.44h24.48a1.22,1.22,0,0,1,.9.44,1.51,1.51,0,0,1,.37,1v7.05a1.59,1.59,0,0,1-.37,1.07,1.22,1.22,0,0,1-.9.44H613v4h12.69a1.22,1.22,0,0,1,.92.45,1.6,1.6,0,0,1,.39,1v7a1.5,1.5,0,0,1-.39,1,1.29,1.29,0,0,1-.92.43H613v4h15.7a1.17,1.17,0,0,1,.93.44,1.55,1.55,0,0,1,.37,1.05v7.07a1.41,1.41,0,0,1-.37,1,1.17,1.17,0,0,1-.93.44Z" transform="translate(-4.85 -10.24)"/><path class="cls-2" d="M633.09,112.13a.91.91,0,0,1-.78-.43,1.63,1.63,0,0,1-.31-1V76.54a1.63,1.63,0,0,1,.31-1,.91.91,0,0,1,.78-.43h7.82a.91.91,0,0,1,.77.43,1.64,1.64,0,0,1,.32,1v34.18a1.64,1.64,0,0,1-.32,1,.91.91,0,0,1-.77.43Z" transform="translate(-4.85 -10.24)"/><path class="cls-2" d="M655,83.13h0v7h5a11,11,0,0,0,4.67-.8,3,3,0,0,0,1.63-2.87,2.81,2.81,0,0,0-1.22-2.53,6.37,6.37,0,0,0-3.52-.8Zm1,16v11.61a1.36,1.36,0,0,1-.38,1,1.22,1.22,0,0,1-.93.43h-9.43a1.17,1.17,0,0,1-.88-.43,1.42,1.42,0,0,1-.38-1V76.55a1.41,1.41,0,0,1,.38-1,1.17,1.17,0,0,1,.88-.43h20.66a12.17,12.17,0,0,1,8.25,2.69,9.71,9.71,0,0,1,3.34,7.69c0,3.59-.92,6.18-2.74,7.79a10.63,10.63,0,0,1-1.54,1.15,11.61,11.61,0,0,1-2,1,11.4,11.4,0,0,1,2.17,1.75A12.22,12.22,0,0,1,675,99.06L680.43,110a1.63,1.63,0,0,1,0,1.49,1.15,1.15,0,0,1-1.09.69H669.15a.9.9,0,0,1-.61-.25,1.54,1.54,0,0,1-.46-.55L663,100v.09c-.11-.16-.23-.31-.35-.47a1.67,1.67,0,0,0-.37-.38A6,6,0,0,0,659.8,99Z" transform="translate(-4.85 -10.24)"/><path class="cls-2" d="M705.47,87.15h0a10,10,0,0,0-12.23,0,10.17,10.17,0,0,0,0,12.34,10.07,10.07,0,0,0,12.23,0,10.09,10.09,0,0,0,0-12.34m8.85,21c-3.39,3.16-8.37,4.76-15,4.76s-11.53-1.66-15-4.76-5.08-8-5.08-14.55S681,82.22,684.38,79s8.37-4.79,15-4.79,11.54,1.66,15,4.79,5.08,8,5.08,14.56-1.7,11.37-5.11,14.55Z" transform="translate(-4.85 -10.24)"/><path class="cls-2" d="M309.2,54.66c0-6.75,3.14-9.61,8.76-9.61a8.19,8.19,0,0,1,6.76,2.65l-2.54,2.83a5.21,5.21,0,0,0-4.25-1.66c-3.64,0-5.06,2-5.06,5.89s1,6.09,4.94,6.09c3.3,0,4.19-1.21,4.19-3.82v-.9h-5v-3h8v3.12c0,5.3-1.89,8.07-8,8.07-6.6,0-8.52-3.42-8.52-9.61" transform="translate(-4.85 -10.24)"/><path class="cls-2" d="M349.74,54.74h0c0-3.65-1.29-5.92-5.11-5.92s-5.11,2.27-5.11,5.92,1.29,5.93,5.11,5.93,5.11-2.29,5.11-5.93m-13.74,0c0-7,3.53-9.61,8.83-9.61s8.85,2.62,8.85,9.61-3.54,9.64-8.85,9.64S336,61.71,336,54.66Z" transform="translate(-4.85 -10.24)"/><polygon class="cls-2" points="357.76 34.89 361.69 34.89 366.39 48.69 371.1 34.89 374.96 34.89 368.23 53.89 364.44 53.89 357.76 34.89"/><polygon class="cls-2" points="385.15 34.89 398.15 34.89 398.15 38.89 389.15 38.89 389.15 41.89 398.15 41.89 398.15 45.89 389.15 45.89 389.15 49.89 398.15 49.89 398.15 53.89 385.15 53.89 385.15 34.89"/><path class="cls-2" d="M422,54.13h0c1.85,0,2.69-.51,2.69-2.48s-.79-2.52-2.74-2.52h-4v5Zm.12,4H419v6h-4v-19h8.21c5.36,0,6.64,2.57,6.64,6.22,0,2.61-.76,5.06-3.58,6l3.36,6.76h-4.5Z" transform="translate(-4.85 -10.24)"/><polygon class="cls-2" points="436.15 34.89 440.1 34.89 447.15 46.87 447.15 34.89 451.15 34.89 451.15 53.89 447.91 53.89 440.15 41.17 440.15 53.89 436.15 53.89 436.15 34.89"/><path class="cls-2" d="M481.33,54.74h0c0-3.65-1.28-5.92-5.1-5.92s-5.11,2.27-5.11,5.92,1.28,5.93,5.11,5.93,5.1-2.29,5.1-5.93m-14.33,0c0-7,3.51-9.61,8.82-9.61s8.84,2.62,8.84,9.61-3.54,9.64-8.84,9.64S467,61.71,467,54.66Z" transform="translate(-4.85 -10.24)"/><path class="cls-2" d="M516.34,60.13h0c4.41,0,5.31-1.48,5.31-5.56s-.74-5.44-5.38-5.44H514v11Zm-6.32-15h6.11c6.72,0,9.47,2,9.47,9.49s-2.87,9.51-9.57,9.51h-6Z" transform="translate(-4.85 -10.24)"/><path class="cls-2" d="M549.5,54.74h0c0-3.65-1.28-5.92-5.1-5.92s-5.11,2.27-5.11,5.92,1.28,5.93,5.11,5.93,5.1-2.29,5.1-5.93m-13.94,0c0-7,3.51-9.61,8.84-9.61s8.83,2.62,8.83,9.61-3.53,9.64-8.83,9.64-8.82-2.67-8.82-9.72Z" transform="translate(-4.85 -10.24)"/><polygon class="cls-2" points="573.15 34.89 586.15 34.89 586.15 38.89 577.15 38.89 577.15 41.89 586.15 41.89 586.15 45.89 577.15 45.89 577.15 49.89 586.15 49.89 586.15 53.89 573.15 53.89 573.15 34.89"/><path class="cls-2" d="M601,61.83l1.84-3a9.94,9.94,0,0,0,6,2c3.3,0,3.88-.71,3.88-2.27s-1.41-1.84-4-2.23c-4.45-.7-6.77-1.66-6.77-5.67s2.26-5.63,7-5.63a10.87,10.87,0,0,1,6.75,1.84l-1.91,3.23a8.94,8.94,0,0,0-4.83-1.45c-2.6,0-3.29.58-3.29,1.94s1.36,1.79,4,2.22c4,.65,6.69,1.38,6.69,5.59,0,3.77-1.85,5.88-7.42,5.88A12.32,12.32,0,0,1,601,61.86" transform="translate(-4.85 -10.24)"/><polygon class="cls-2" points="626.15 38.89 621.15 38.89 621.15 34.89 636.15 34.89 636.15 38.89 630.15 38.89 630.15 53.89 626.15 53.89 626.15 38.89"/><path class="cls-2" d="M659.09,57.13h0l-2.61-7.41-2.62,7.41Zm-4.41-12h3.77l6.83,19h-4l-1.07-3h-7.4l-1,3H647.9Z" transform="translate(-4.85 -10.24)"/><path class="cls-2" d="M682.3,60.13h0c4.42,0,5.31-1.48,5.31-5.56s-.73-5.44-5.37-5.44H680v11Zm-6.3-15h6.11c6.72,0,9.48,2,9.48,9.49s-2.87,9.51-9.58,9.51h-6Z" transform="translate(-4.85 -10.24)"/><path class="cls-2" d="M715.51,54.74h0c0-3.65-1.29-5.92-5.11-5.92s-5.11,2.27-5.11,5.92,1.27,5.93,5.11,5.93,5.11-2.29,5.11-5.93m-13.51,0c0-7,3.51-9.61,8.83-9.61s8.83,2.62,8.83,9.61-3.52,9.64-8.83,9.64S702,61.71,702,54.66Z" transform="translate(-4.85 -10.24)"/><path class="cls-2" d="M140.66,78.82c2.85,0,3,1.47,3.13,3.31H137c.17-2,1-3.31,3.71-3.31m.09,10.31a6.78,6.78,0,0,0,4.55-1.4l-1-1.36a5.11,5.11,0,0,1-3.5,1.1c-2.73,0-3.42-1.34-3.55-3.34h8.14c.07-3.37-.09-6.52-4.55-6.52s-5.37,2.57-5.37,5.76.82,5.76,5.37,5.76Zm-14.34-2c-2.75,0-3.46-1.65-3.46-4.35s.71-4.25,3.46-4.25,3.89,1.08,3.89,4.25S129.21,87.11,126.41,87.11Zm-.47,2c2.4,0,3.6-.5,4.29-1.56l.23,1.41,1.54-.15V72.13h-2v6c-.55-1-1.66-1.46-4-1.46-3.77,0-4.85,2.56-4.85,6.22s1.07,6.29,4.85,6.29Zm-18.86-1.56c-2,0-2.61-.7-2.61-2,0-1.91,1.08-2.47,6-2.47H111v.75c0,2.56-1.14,3.69-3.92,3.69ZM106.55,89c2.56,0,3.84-.55,4.55-1.56.3,1,.72,1.37,2,1.37a3.1,3.1,0,0,0,.86,0V87c-1.09,0-1.17-.18-1-1.34V81.4c-.17-3.42-.91-4.82-5-4.82a9.28,9.28,0,0,0-4.81,1.34l1.1,1.65a6.67,6.67,0,0,1,3.53-1c2.52,0,2.93.78,3,2.57h-.64c-6-.06-7.89.93-7.89,4.34,0,2,.84,3.57,4.28,3.57ZM98,75.13h2v-3H98Zm0,14h2v-12H98Zm-8,0h2V82.8c0-2.2,1-3.69,4-3.71V76.94a4.79,4.79,0,0,0-4.11,1.65l-.21-1.46-1.68.1Zm-9.92-1.56c-2,0-2.62-.7-2.62-2,0-1.91,1.07-2.47,6-2.47H84v.75c0,2.63-1.14,3.76-3.91,3.76ZM79.66,89c2.55,0,3.86-.55,4.56-1.56.3,1,.73,1.38,2,1.38a2.93,2.93,0,0,0,.73,0V87c-1,0-1.06-.18-1-1.34V81.33c-.06-3.41-.79-4.82-4.87-4.82a9.32,9.32,0,0,0-4.82,1.34l1.09,1.66a6.67,6.67,0,0,1,3.53-1c2.54,0,2.95.78,3,2.63h-.66c-6-.13-7.88.86-7.88,4.28,0,2,.86,3.63,4.29,3.63ZM66,79.13h2v6.73c0,2.19.6,3.27,3.4,3.27H74v-2H72.6c-1.6,0-1.6-.7-1.6-1.79V79.13h3v-2H70V73.2l-1.53.35-.34,3.58H66Zm-6.59-.31c2.84,0,3,1.47,3.12,3.31H55.68c.18-1.91,1-3.25,3.73-3.25Zm.12,9.74A7.24,7.24,0,0,0,64.45,87l-1.12-1.47a5.52,5.52,0,0,1-3.79,1.19c-3,0-3.72-1.46-3.86-3.63h8.84c0-3.66-.1-7.09-4.95-7.09s-5.81,2.8-5.81,6.26.87,6.33,5.76,6.33ZM46,89.13h2V82.8c0-2.2,1-3.69,4-3.71V77a4.79,4.79,0,0,0-4.11,1.66l-.22-1.46L46,77.3ZM39.25,89a5.89,5.89,0,0,0,4.52-1.77l-1.4-1.35a4,4,0,0,1-3,1.23c-3,0-3.81-1.66-3.81-4.31s.87-4.29,3.81-4.29a3.79,3.79,0,0,1,2.93,1.23l1.52-1.46a5.67,5.67,0,0,0-4.45-1.79c-4.68,0-5.9,2.55-5.9,6.26S34.69,89,39.27,89ZM26.3,78.82c2.84,0,3,1.47,3.12,3.31H22.58c.18-1.91,1-3.25,3.74-3.25Zm.1,9.74A7.26,7.26,0,0,0,31.34,87l-1.12-1.47a5.61,5.61,0,0,1-3.8,1.19c-3,0-3.71-1.46-3.84-3.63h8.83c0-3.66-.11-7.09-5-7.09s-5.84,2.8-5.84,6.26,1,6.33,5.87,6.33ZM11.87,89c4.61,0,6.59-1.66,6.59-4.83,0-3.47-2.54-4-6.1-4.62C9.61,79.06,8,78.73,8,76.91s1.08-2.4,3.83-2.4a8.62,8.62,0,0,1,4.61,1.25L17.67,74a10.38,10.38,0,0,0-5.8-1.46c-4,0-6,1.23-6,4.46s2.28,3.94,5.92,4.55c2.75.45,4.5.78,4.5,2.77s-1.24,2.78-4.47,2.78a10,10,0,0,1-5.7-1.65L5.06,87.06a11.82,11.82,0,0,0,6.82,2Z" transform="translate(-4.85 -10.24)"/><path class="cls-2" d="M69.74,102.71c2.09,0,2.37,1,2.45,2.42H66.81c.16-1.51.85-2.42,2.93-2.42M70,113.2a8.3,8.3,0,0,0,5.52-1.66l-1.65-2.22a5.75,5.75,0,0,1-3.82,1.13c-2.18,0-2.88-.86-3.07-2.32h8.46c.11-4.09,0-7.69-5.41-7.69s-6.32,3-6.32,6.38,1,6.35,6.29,6.35Zm-15-3.26c-2.21,0-2.67-1.54-2.67-3.49s.46-3.31,2.67-3.31c2.46,0,3.1,1,3.1,3.31s-.84,3.46-3.17,3.46Zm-.66,3.12a4.58,4.58,0,0,0,4-1.36l.3,1.23L61,112.7V96.13H58v5.42c-.46-.65-1.5-1.16-3.43-1.16-3.89,0-4.92,2.85-4.92,6.34s.86,6.3,4.67,6.3Zm-13.2-.2c4.65,0,5.77-1.66,5.82-5.91v-6.82H44v6.93c-.35,1.66-.35,2.92-2.78,2.92s-2.44-1.19-2.22-2.9v-6H36V107c-.62,4.09.49,5.8,5.12,5.8ZM38.92,99.13h3l4.15-4H42Zm-13,11c-1.55,0-2-.43-2-1.34,0-1.31.51-1.66,4.81-1.66H29v.45c-.07,1.7-1,2.47-3.11,2.47Zm-.54,3.17c2.17,0,3.45-.52,4-1.36.46,1,1,1.21,2.21,1.21a6,6,0,0,0,1.34,0v-3c-.94,0-1-.15-1-1.13v-3.71c0-3.46-.86-4.87-5-4.87A9.69,9.69,0,0,0,21.7,102l1.57,2.48a6.23,6.23,0,0,1,3.34-1c2,0,2.26.57,2.28,1.66h-.47c-5.11,0-7.39.83-7.39,4.27,0,2.18.74,3.82,4.31,3.82Zm-13-.44c5.31,0,7.07-1.82,7.07-5,0-3.61-2.55-4.24-6.37-4.8-2.54-.37-3.86-.6-3.86-1.89s.59-1.66,3.1-1.66a9.32,9.32,0,0,1,4.6,1.23L18.82,98a11.3,11.3,0,0,0-6.46-1.65c-4.48,0-6.59,1.27-6.59,4.83s2.23,4.26,6.48,4.86c2.45.35,3.77.61,3.77,1.92s-.58,2-3.69,2a10,10,0,0,1-5.72-1.65l-1.76,2.57a12.92,12.92,0,0,0,7.46,2Z" transform="translate(-4.85 -10.24)"/></g></svg>